# xmcd
#
# Track frame offsets: 
#        150
#        21463
#        39474
#        57701
#        75977
#        92080
#        111450
#        131809
#        150816
#        167037
#        184359
#        202572
#        220548
#        243993
#        269966
#
# Disc length: 3766 seconds
#
# Revision: 0
# Processed by: cddbd v1.5.1PL2 Copyright (c) Steve Scherf et al.
# Submitted via: ExactAudioCopy v0.95a5
#
DISCID=cf0eb40f
DTITLE=Joss Stone - Mind, Body and Soul
DYEAR=2004
DGENRE=Soul
TTITLE0=Right to be wrong
TTITLE1=Jet lag
TTITLE2=You had me
TTITLE3=Spoiled
TTITLE4=Don't cha wanna ride
TTITLE5=Less is more
TTITLE6=Security
TTITLE7=Young at heart
TTITLE8=Snakes and ladders
TTITLE9=Understand
TTITLE10=Don't know how
TTITLE11=Torn and tattered
TTITLE12=Killing time
TTITLE13=Sleep like a child
TTITLE14=Daniel
EXTD=
EXTT0=
EXTT1=
EXTT2=
EXTT3=
EXTT4=
EXTT5=
EXTT6=
EXTT7=
EXTT8=
EXTT9=
EXTT10=
EXTT11=
EXTT12=
EXTT13=
EXTT14=
PLAYORDER=
